<svg width="74" height="76" viewBox="0 0 74 76" fill="none" xmlns="http://www.w3.org/2000/svg">
<rect width="74" height="76" rx="19" fill="#161515"/>
<path d="M32.804 44V35.36H34.424V44H32.804ZM38.4867 44.144C37.9027 44.144 37.4067 44.056 36.9987 43.88C36.5987 43.696 36.2907 43.448 36.0747 43.136C35.8587 42.824 35.7347 42.472 35.7027 42.08H37.3107C37.3427 42.232 37.4027 42.372 37.4907 42.5C37.5867 42.62 37.7147 42.72 37.8747 42.8C38.0347 42.872 38.2307 42.908 38.4627 42.908C38.6787 42.908 38.8587 42.88 39.0027 42.824C39.1467 42.76 39.2547 42.676 39.3267 42.572C39.3987 42.468 39.4347 42.352 39.4347 42.224C39.4347 42.048 39.3827 41.912 39.2787 41.816C39.1827 41.712 39.0427 41.632 38.8587 41.576C38.6747 41.512 38.4467 41.46 38.1747 41.42C37.8547 41.364 37.5547 41.292 37.2747 41.204C36.9947 41.116 36.7467 41.004 36.5307 40.868C36.3227 40.732 36.1587 40.56 36.0387 40.352C35.9187 40.144 35.8587 39.892 35.8587 39.596C35.8587 39.236 35.9547 38.912 36.1467 38.624C36.3467 38.336 36.6307 38.112 36.9987 37.952C37.3747 37.784 37.8227 37.7 38.3427 37.7C39.0867 37.7 39.6707 37.864 40.0947 38.192C40.5187 38.52 40.7707 38.968 40.8507 39.536H39.3267C39.2787 39.352 39.1707 39.208 39.0027 39.104C38.8347 39 38.6107 38.948 38.3307 38.948C38.0347 38.948 37.8107 39.004 37.6587 39.116C37.5067 39.22 37.4307 39.356 37.4307 39.524C37.4307 39.644 37.4707 39.752 37.5507 39.848C37.6387 39.936 37.7747 40.016 37.9587 40.088C38.1427 40.152 38.3787 40.212 38.6667 40.268C39.1787 40.356 39.6107 40.464 39.9627 40.592C40.3147 40.712 40.5827 40.892 40.7667 41.132C40.9587 41.364 41.0547 41.696 41.0547 42.128C41.0547 42.536 40.9467 42.892 40.7307 43.196C40.5227 43.492 40.2267 43.724 39.8427 43.892C39.4667 44.06 39.0147 44.144 38.4867 44.144Z" fill="#E8DFDF"/>
<path d="M44.56 44.06C44.264 44.06 44.02 43.972 43.828 43.796C43.644 43.612 43.552 43.388 43.552 43.124C43.552 42.86 43.644 42.64 43.828 42.464C44.02 42.28 44.264 42.188 44.56 42.188C44.856 42.188 45.096 42.28 45.28 42.464C45.464 42.64 45.556 42.86 45.556 43.124C45.556 43.388 45.464 43.612 45.28 43.796C45.096 43.972 44.856 44.06 44.56 44.06Z" fill="#E8DFDF"/>
</svg>
